# xmcd
#
# Track frame offsets:
#	150
#	21318
#	41492
#	60898
#	83201
#	105856
#	128785
#	150942
#	175141
#	197744
#	220353
#	245115
#	265474
#	288594
#	310871
#
# Disc length: 4466 seconds
#
# Revision: 0
# Processed by: cddbd v1.5.2PL0 Copyright (c) Steve Scherf et al.
# Submitted via: EZCDAudioConverter 8.0.2.1
#
DISCID=cc11700f
DTITLE=Various Artist - Bước Quên
DYEAR=2002
DGENRE=
TTITLE0=Cẩm Ly - Bước Quên
TTITLE1=Lê Uyên Nhy - Đêm chia tay
TTITLE2=Quang Vinh - Tóc thề
TTITLE3=Thanh Thanh - Lặng lẽ gọi tên
TTITLE4=Nguyễn Phi Hùng - Si tình
TTITLE5=Cẩm Ly - Tia nắng cô đơn
TTITLE6=Lê Uyên Nhy - Tình trong mơ
TTITLE7=Thanh Thanh - Ai sẽ yêu em
TTITLE8=Nguyễn Phi Hùng - Chỉ còn tiếng thu
TTITLE9=Lê Uyển Nhy - Một ngày chia tay
TTITLE10=Cẩm Ly - Bước Quên
TTITLE11=Soundtrack - Đêm chia tay
TTITLE12=Soundtrack - Tia nắng cô đơn
TTITLE13=Soundtrack - Tình trong mơ
TTITLE14=Soundtrack - Ai sẽ yêu em
EXTD=
EXTT0=
EXTT1=
EXTT2=
EXTT3=
EXTT4=
EXTT5=
EXTT6=
EXTT7=
EXTT8=
EXTT9=
EXTT10=
EXTT11=
EXTT12=
EXTT13=
EXTT14=
PLAYORDER=
